# xmcd
#
# Track frame offsets:
#	150
#	16289
#	36310
#	53733
#	77804
#	91328
#
# Disc length: 1717 seconds
# Revision: 0
# Processed by: cddbd v1.5.2PL0 Copyright (c) Steve Scherf et al.
# Submitted via: dBpowerAMP V12.0
#
DISCID=4006b306
DTITLE=Wille and the Bandits - Samsara
DYEAR=2007
DGENRE=Blues
TTITLE0=Little Miss Pretty
TTITLE1=Boom Yeah (don't hold back)
TTITLE2=Absence
TTITLE3=Burden
TTITLE4=The Lighthouse
TTITLE5=Angel
EXTD=
EXTT0=
EXTT1=
EXTT2=
EXTT3=
EXTT4=
EXTT5=
PLAYORDER=
